REM DIRINDEX 1\2,1\3,1\4,1\5,1\6
REM DIRNAME cjc091,folder01,folder02,folder03,folder04,folder05
TITLE ""
FILE "CD1-04.mp3" MP3
  TRACK 01 AUDIO
    TITLE "6:cjc091_0050"
    INDEX 01 00:00:00
  TRACK 02 AUDIO
    TITLE "0:"
    INDEX 01 00:01:60
  TRACK 03 AUDIO
    TITLE "2:cjc091_0051"
    INDEX 01 00:03:06
  TRACK 04 AUDIO
    TITLE "0:"
    INDEX 01 00:04:44
  TRACK 05 AUDIO
    TITLE "3:cjc091_0052"
    INDEX 01 00:04:62
  TRACK 06 AUDIO
    TITLE "0:"
    INDEX 01 00:06:73
  TRACK 07 AUDIO
    TITLE "4:cjc091_0053"
    INDEX 01 00:07:19
  TRACK 08 AUDIO
    TITLE "0:"
    INDEX 01 00:13:14
  TRACK 09 AUDIO
    TITLE "2:cjc091_0054"
    INDEX 01 00:14:19
  TRACK 10 AUDIO
    TITLE "0:"
    INDEX 01 00:15:48
  TRACK 11 AUDIO
    TITLE "3:cjc091_0055"
    INDEX 01 00:15:60
  TRACK 12 AUDIO
    TITLE "0:"
    INDEX 01 00:17:47
  TRACK 13 AUDIO
    TITLE "4:cjc091_0056"
    INDEX 01 00:17:69
  TRACK 14 AUDIO
    TITLE "0:"
    INDEX 01 00:21:21
  TRACK 15 AUDIO
    TITLE "2:cjc091_0057"
    INDEX 01 00:22:29
  TRACK 16 AUDIO
    TITLE "0:"
    INDEX 01 00:23:57
  TRACK 17 AUDIO
    TITLE "3:cjc091_0058"
    INDEX 01 00:23:69
  TRACK 18 AUDIO
    TITLE "0:"
    INDEX 01 00:25:58
  TRACK 19 AUDIO
    TITLE "4:cjc091_0059"
    INDEX 01 00:26:09
  TRACK 20 AUDIO
    TITLE "0:"
    INDEX 01 00:28:74
  TRACK 21 AUDIO
    TITLE "2:cjc091_0060"
    INDEX 01 00:30:03
  TRACK 22 AUDIO
    TITLE "0:"
    INDEX 01 00:31:22
  TRACK 23 AUDIO
    TITLE "3:cjc091_0061"
    INDEX 01 00:31:26
  TRACK 24 AUDIO
    TITLE "0:"
    INDEX 01 00:32:56
  TRACK 25 AUDIO
    TITLE "4:cjc091_0062"
    INDEX 01 00:33:05
  TRACK 26 AUDIO
    TITLE "0:"
    INDEX 01 00:36:23
  TRACK 27 AUDIO
    TITLE "2:cjc091_0063"
    INDEX 01 00:37:26
  TRACK 28 AUDIO
    TITLE "0:"
    INDEX 01 00:38:51
  TRACK 29 AUDIO
    TITLE "3:cjc091_0064"
    INDEX 01 00:38:67
  TRACK 30 AUDIO
    TITLE "0:"
    INDEX 01 00:40:73
  TRACK 31 AUDIO
    TITLE "4:cjc091_0065"
    INDEX 01 00:41:22
  TRACK 32 AUDIO
    TITLE "0:"
    INDEX 01 00:43:44
  TRACK 33 AUDIO
    TITLE "2:cjc091_0066"
    INDEX 01 00:44:52
  TRACK 34 AUDIO
    TITLE "0:"
    INDEX 01 00:45:71
  TRACK 35 AUDIO
    TITLE "3:cjc091_0067"
    INDEX 01 00:46:13
  TRACK 36 AUDIO
    TITLE "0:"
    INDEX 01 00:47:46
  TRACK 37 AUDIO
    TITLE "4:cjc091_0068"
    INDEX 01 00:47:66
  TRACK 38 AUDIO
    TITLE "0:"
    INDEX 01 00:50:17
  TRACK 39 AUDIO
    TITLE "2:cjc091_0069"
    INDEX 01 00:51:16
  TRACK 40 AUDIO
    TITLE "0:"
    INDEX 01 00:52:36
  TRACK 41 AUDIO
    TITLE "3:cjc091_0070"
    INDEX 01 00:52:45
  TRACK 42 AUDIO
    TITLE "0:"
    INDEX 01 00:54:13
  TRACK 43 AUDIO
    TITLE "4:cjc091_0071"
    INDEX 01 00:54:42
  TRACK 44 AUDIO
    TITLE "0:"
    INDEX 01 00:58:32
  TRACK 45 AUDIO
    TITLE "2:cjc091_0072"
    INDEX 01 00:59:34
  TRACK 46 AUDIO
    TITLE "0:"
    INDEX 01 01:03:00
  TRACK 47 AUDIO
    TITLE "3:cjc091_0073"
    INDEX 01 01:03:26
  TRACK 48 AUDIO
    TITLE "0:"
    INDEX 01 01:07:02
  TRACK 49 AUDIO
    TITLE "4:cjc091_0074"
    INDEX 01 01:07:31
  TRACK 50 AUDIO
    TITLE "0:"
    INDEX 01 01:13:65
  TRACK 51 AUDIO
    TITLE "2:cjc091_0075"
    INDEX 01 01:14:70
  TRACK 52 AUDIO
    TITLE "0:"
    INDEX 01 01:16:44
  TRACK 53 AUDIO
    TITLE "3:cjc091_0076"
    INDEX 01 01:16:71
  TRACK 54 AUDIO
    TITLE "0:"
    INDEX 01 01:18:72
  TRACK 55 AUDIO
    TITLE "4:cjc091_0077"
    INDEX 01 01:19:30
  TRACK 56 AUDIO
    TITLE "0:"
    INDEX 01 01:23:16
  TRACK 57 AUDIO
    TITLE "2:cjc091_0078"
    INDEX 01 01:24:20
  TRACK 58 AUDIO
    TITLE "0:"
    INDEX 01 01:26:15
  TRACK 59 AUDIO
    TITLE "3:cjc091_0079"
    INDEX 01 01:26:34
  TRACK 60 AUDIO
    TITLE "0:"
    INDEX 01 01:29:17
  TRACK 61 AUDIO
    TITLE "4:cjc091_0080"
    INDEX 01 01:29:43
  TRACK 62 AUDIO
    TITLE "0:"
    INDEX 01 01:33:19
  TRACK 63 AUDIO
    TITLE "2:cjc091_0081"
    INDEX 01 01:34:22
  TRACK 64 AUDIO
    TITLE "0:"
    INDEX 01 01:35:33
  TRACK 65 AUDIO
    TITLE "3:cjc091_0082"
    INDEX 01 01:35:47
  TRACK 66 AUDIO
    TITLE "0:"
    INDEX 01 01:37:46
  TRACK 67 AUDIO
    TITLE "4:cjc091_0083"
    INDEX 01 01:38:04
  TRACK 68 AUDIO
    TITLE "0:"
    INDEX 01 01:41:01
  TRACK 69 AUDIO
    TITLE "2:cjc091_0084"
    INDEX 01 01:42:04
  TRACK 70 AUDIO
    TITLE "0:"
    INDEX 01 01:43:37
  TRACK 71 AUDIO
    TITLE "3:cjc091_0085"
    INDEX 01 01:43:43
  TRACK 72 AUDIO
    TITLE "0:"
    INDEX 01 01:44:46
  TRACK 73 AUDIO
    TITLE "4:cjc091_0086"
    INDEX 01 01:44:70
  TRACK 74 AUDIO
    TITLE "0:"
    INDEX 01 01:48:61
  TRACK 75 AUDIO
    TITLE "2:cjc091_0087"
    INDEX 01 01:50:00
  TRACK 76 AUDIO
    TITLE "0:"
    INDEX 01 01:51:28
  TRACK 77 AUDIO
    TITLE "3:cjc091_0088"
    INDEX 01 01:51:42
  TRACK 78 AUDIO
    TITLE "0:"
    INDEX 01 01:53:53
  TRACK 79 AUDIO
    TITLE "4:cjc091_0089"
    INDEX 01 01:54:11
  TRACK 80 AUDIO
    TITLE "0:"
    INDEX 01 01:57:72
  TRACK 81 AUDIO
    TITLE "2:cjc091_0090"
    INDEX 01 01:59:03
  TRACK 82 AUDIO
    TITLE "0:"
    INDEX 01 02:00:18
  TRACK 83 AUDIO
    TITLE "3:cjc091_0091"
    INDEX 01 02:00:25
  TRACK 84 AUDIO
    TITLE "0:"
    INDEX 01 02:01:29
  TRACK 85 AUDIO
    TITLE "4:cjc091_0092"
    INDEX 01 02:01:46
  TRACK 86 AUDIO
    TITLE "0:"
    INDEX 01 02:05:07
  TRACK 87 AUDIO
    TITLE "2:cjc091_0093"
    INDEX 01 02:06:18
  TRACK 88 AUDIO
    TITLE "0:"
    INDEX 01 02:07:59
  TRACK 89 AUDIO
    TITLE "3:cjc091_0094"
    INDEX 01 02:07:67
  TRACK 90 AUDIO
    TITLE "0:"
    INDEX 01 02:09:44
  TRACK 91 AUDIO
    TITLE "4:cjc091_0095"
    INDEX 01 02:09:62
  TRACK 92 AUDIO
    TITLE "0:"
    INDEX 01 02:12:70
